# xmcd
#
# Track frame offsets: 
#        182
#        16722
#        35697
#        48960
#        65862
#        81665
#        99630
#        118977
#        134202
#        150600
#
# Disc length: 2237 seconds
#
# Revision: 3
# Processed by: cddbd v1.5.2PL0 Copyright (c) Steve Scherf et al.
# Submitted via: ExactAudioCopy v1.3
#
DISCID=9208bb0a
DTITLE=Alice Cooper - Constrictor
DYEAR=1986
DGENRE=Hard Rock
TTITLE0=Teenage Frankenstein
TTITLE1=Give It Up
TTITLE2=Thrill My Gorilla
TTITLE3=Life And Death Of The Party
TTITLE4=Simple Disobedience
TTITLE5=The World Needs Guts
TTITLE6=Trick Bag
TTITLE7=Crawlin'
TTITLE8=The Great American Success Story
TTITLE9=He's Back (The Man Behind The Mask)
EXTD=YEAR: 1986
EXTT0=
EXTT1=
EXTT2=
EXTT3=
EXTT4=
EXTT5=
EXTT6=
EXTT7=
EXTT8=
EXTT9=
PLAYORDER=
